<?xml version="1.0" encoding="UTF-8" standalone="no"?>
<!DOCTYPE svg PUBLIC "-//W3C//DTD SVG 1.1//EN"
 "http://www.w3.org/Graphics/SVG/1.1/DTD/svg11.dtd">
<!-- Generated by graphviz version 2.36.0 (20140111.2315)
 -->
<!-- Title: G Pages: 1 -->
<svg width="430pt" height="288pt"
 viewBox="0.00 0.00 429.80 288.00" xmlns="http://www.w3.org/2000/svg" xmlns:xlink="http://www.w3.org/1999/xlink">
<g id="graph0" class="graph" transform="scale(0.549618 0.549618) rotate(0) translate(4 520)">
<title>G</title>
<polygon fill="white" stroke="none" points="-4,4 -4,-520 778,-520 778,4 -4,4"/>
<g id="clust1" class="cluster"><title>cluster_0</title>
<polygon fill="#ccffcc" stroke="#ccffcc" points="167.726,-147 167.726,-472 761.69,-472 761.69,-147 167.726,-147"/>
<text text-anchor="middle" x="464.708" y="-456.8" font-family="Times,serif" font-size="14.00">App</text>
</g>
<g id="clust2" class="cluster"><title>cluster_1</title>
<polygon fill="#99ff99" stroke="#99ff99" points="180.036,-211 180.036,-397 506.254,-397 506.254,-211 180.036,-211"/>
<text text-anchor="middle" x="343.145" y="-381.8" font-family="Times,serif" font-size="14.00">Route</text>
</g>
<g id="clust3" class="cluster"><title>cluster_2</title>
<polygon fill="#66ff66" stroke="#66ff66" points="349.3,-291 349.3,-366 493.944,-366 493.944,-291 349.3,-291"/>
<text text-anchor="middle" x="421.622" y="-350.8" font-family="Times,serif" font-size="14.00">Common</text>
</g>
<g id="clust4" class="cluster"><title>cluster_3</title>
<polygon fill="#66ff66" stroke="#66ff66" points="192.346,-219 192.346,-366 336.99,-366 336.99,-219 192.346,-219"/>
<text text-anchor="middle" x="264.668" y="-350.8" font-family="Times,serif" font-size="14.00">Home</text>
</g>
<g id="clust5" class="cluster"><title>cluster_4</title>
<polygon fill="#ccffcc" stroke="#ccffcc" points="413.928,-64 413.928,-139 586.27,-139 586.27,-64 413.928,-64"/>
<text text-anchor="middle" x="500.099" y="-123.8" font-family="Times,serif" font-size="14.00">Settings</text>
</g>
<!-- u8 -->
<g id="node1" class="node"><title>u8</title>
<ellipse fill="none" stroke="black" cx="76.7237" cy="-245" rx="50.5427" ry="18"/>
<text text-anchor="middle" x="76.7237" y="-241.3" font-family="Times,serif" font-size="14.00">Foundation</text>
</g>
<!-- u6 -->
<g id="node5" class="node"><title>u6</title>
<ellipse fill="none" stroke="black" cx="355.724" cy="-173" rx="85.19" ry="18"/>
<text text-anchor="middle" x="355.724" y="-169.3" font-family="Times,serif" font-size="14.00">NoFoundationImport</text>
</g>
<!-- u8&#45;&gt;u6 -->
<g id="edge14" class="edge"><title>u8&#45;&gt;u6</title>
<path fill="none" stroke="black" d="M113.372,-232.513C135.161,-225.856 163.402,-217.527 188.724,-211 220.76,-202.742 256.54,-194.664 286.738,-188.174"/>
<polygon fill="black" stroke="black" points="287.703,-191.547 296.752,-186.036 286.241,-184.701 287.703,-191.547"/>
</g>
<!-- u1 -->
<g id="node2" class="node"><title>u1</title>
<ellipse fill="none" stroke="black" cx="499.724" cy="-18" rx="38.4949" ry="18"/>
<text text-anchor="middle" x="499.724" y="-14.3" font-family="Times,serif" font-size="14.00">Settings</text>
</g>
<!-- u0 -->
<g id="node3" class="node"><title>u0</title>
<ellipse fill="none" stroke="black" cx="501.724" cy="-498" rx="51.4931" ry="18"/>
<text text-anchor="middle" x="501.724" y="-494.3" font-family="Times,serif" font-size="14.00">Application</text>
</g>
<!-- u7 -->
<g id="node4" class="node"><title>u7</title>
<ellipse fill="none" stroke="black" cx="421.724" cy="-423" rx="38.4949" ry="18"/>
<text text-anchor="middle" x="421.724" y="-419.3" font-family="Times,serif" font-size="14.00">Handler</text>
</g>
<!-- u0&#45;&gt;u7 -->
<g id="edge2" class="edge"><title>u0&#45;&gt;u7</title>
<path fill="none" stroke="black" d="M483.969,-480.799C472.867,-470.669 458.413,-457.479 446.229,-446.361"/>
<polygon fill="black" stroke="black" points="448.353,-443.561 438.607,-439.406 443.635,-448.732 448.353,-443.561"/>
</g>
<!-- u2 -->
<g id="node6" class="node"><title>u2</title>
<ellipse fill="none" stroke="black" cx="633.724" cy="-245" rx="75.0904" ry="18"/>
<text text-anchor="middle" x="633.724" y="-241.3" font-family="Times,serif" font-size="14.00">FoundationImport</text>
</g>
<!-- u0&#45;&gt;u2 -->
<g id="edge1" class="edge"><title>u0&#45;&gt;u2</title>
<path fill="none" stroke="black" d="M510.59,-480.141C533.173,-437.199 592.987,-323.462 620.064,-271.974"/>
<polygon fill="black" stroke="black" points="623.166,-273.596 624.723,-263.116 616.97,-270.337 623.166,-273.596"/>
</g>
<!-- u5 -->
<g id="node7" class="node"><title>u5</title>
<ellipse fill="none" stroke="black" cx="421.724" cy="-317" rx="38.4949" ry="18"/>
<text text-anchor="middle" x="421.724" y="-313.3" font-family="Times,serif" font-size="14.00">Handler</text>
</g>
<!-- u7&#45;&gt;u5 -->
<g id="edge13" class="edge"><title>u7&#45;&gt;u5</title>
<path fill="none" stroke="black" d="M421.724,-404.827C421.724,-388.643 421.724,-364.131 421.724,-345.273"/>
<polygon fill="black" stroke="black" points="425.224,-345.199 421.724,-335.199 418.224,-345.199 425.224,-345.199"/>
</g>
<!-- u4 -->
<g id="node8" class="node"><title>u4</title>
<ellipse fill="none" stroke="black" cx="264.724" cy="-317" rx="38.4949" ry="18"/>
<text text-anchor="middle" x="264.724" y="-313.3" font-family="Times,serif" font-size="14.00">Handler</text>
</g>
<!-- u7&#45;&gt;u4 -->
<g id="edge12" class="edge"><title>u7&#45;&gt;u4</title>
<path fill="none" stroke="black" d="M387.75,-414.396C374.079,-410.447 358.549,-404.781 345.724,-397 321.766,-382.464 299.356,-359.597 284.209,-342.197"/>
<polygon fill="black" stroke="black" points="286.522,-339.513 277.381,-334.155 281.185,-344.044 286.522,-339.513"/>
</g>
<!-- u6&#45;&gt;u1 -->
<g id="edge10" class="edge"><title>u6&#45;&gt;u1</title>
<path fill="none" stroke="black" d="M360.481,-154.989C367.716,-131.822 383.487,-90.237 409.724,-64 423.457,-50.2664 442.237,-39.9741 459.09,-32.7243"/>
<polygon fill="black" stroke="black" points="460.79,-35.8114 468.737,-28.8044 458.155,-29.3263 460.79,-35.8114"/>
</g>
<!-- u9 -->
<g id="node10" class="node"><title>u9</title>
<ellipse fill="none" stroke="black" cx="499.724" cy="-90" rx="48.1437" ry="18"/>
<text text-anchor="middle" x="499.724" y="-86.3" font-family="Times,serif" font-size="14.00">StaticFiles</text>
</g>
<!-- u6&#45;&gt;u9 -->
<g id="edge11" class="edge"><title>u6&#45;&gt;u9</title>
<path fill="none" stroke="black" d="M384.173,-155.997C407.533,-142.857 440.69,-124.206 465.499,-110.251"/>
<polygon fill="black" stroke="black" points="467.228,-113.294 474.228,-105.341 463.796,-107.193 467.228,-113.294"/>
</g>
<!-- u2&#45;&gt;u8 -->
<g id="edge4" class="edge"><title>u2&#45;&gt;u8</title>
<path fill="none" stroke="black" d="M576.034,-256.633C492.377,-271.827 332.636,-294.538 197.724,-277 172.778,-273.757 145.649,-266.903 123.413,-260.367"/>
<polygon fill="black" stroke="black" points="124.151,-256.934 113.566,-257.401 122.131,-263.636 124.151,-256.934"/>
</g>
<!-- u2&#45;&gt;u1 -->
<g id="edge3" class="edge"><title>u2&#45;&gt;u1</title>
<path fill="none" stroke="black" d="M634.214,-226.822C634.308,-192.19 629.878,-113.116 590.724,-64 578.395,-48.5346 559.389,-37.9809 541.928,-31.0045"/>
<polygon fill="black" stroke="black" points="543.033,-27.6811 532.439,-27.4883 540.6,-34.245 543.033,-27.6811"/>
</g>
<!-- u2&#45;&gt;u9 -->
<g id="edge5" class="edge"><title>u2&#45;&gt;u9</title>
<path fill="none" stroke="black" d="M619.128,-227.335C595.467,-200.318 548.622,-146.831 521.167,-115.483"/>
<polygon fill="black" stroke="black" points="523.523,-112.861 514.301,-107.644 518.257,-117.473 523.523,-112.861"/>
</g>
<!-- u5&#45;&gt;u2 -->
<g id="edge9" class="edge"><title>u5&#45;&gt;u2</title>
<path fill="none" stroke="black" d="M442.919,-301.829C449.402,-297.927 456.683,-293.959 463.724,-291 496.613,-277.178 534.898,-266.599 566.799,-259.181"/>
<polygon fill="black" stroke="black" points="567.941,-262.511 576.918,-256.884 566.391,-255.685 567.941,-262.511"/>
</g>
<!-- u4&#45;&gt;u2 -->
<g id="edge7" class="edge"><title>u4&#45;&gt;u2</title>
<path fill="none" stroke="black" d="M294.828,-305.573C309.958,-300.624 328.66,-294.945 345.724,-291 416.657,-274.602 498.817,-262.423 557.186,-254.9"/>
<polygon fill="black" stroke="black" points="557.956,-258.33 567.434,-253.595 557.072,-251.386 557.956,-258.33"/>
</g>
<!-- u3 -->
<g id="node9" class="node"><title>u3</title>
<ellipse fill="none" stroke="black" cx="270.724" cy="-245" rx="30.3206" ry="18"/>
<text text-anchor="middle" x="270.724" y="-241.3" font-family="Times,serif" font-size="14.00">Form</text>
</g>
<!-- u4&#45;&gt;u3 -->
<g id="edge8" class="edge"><title>u4&#45;&gt;u3</title>
<path fill="none" stroke="black" d="M266.207,-298.697C266.868,-290.983 267.663,-281.712 268.4,-273.112"/>
<polygon fill="black" stroke="black" points="271.891,-273.367 269.258,-263.104 264.916,-272.769 271.891,-273.367"/>
</g>
<!-- u3&#45;&gt;u6 -->
<g id="edge6" class="edge"><title>u3&#45;&gt;u6</title>
<path fill="none" stroke="black" d="M285.189,-229.067C291.073,-223.233 298.049,-216.611 304.724,-211 310.538,-206.112 316.95,-201.154 323.208,-196.523"/>
<polygon fill="black" stroke="black" points="325.54,-199.155 331.576,-190.448 321.427,-193.491 325.54,-199.155"/>
</g>
<!-- u9&#45;&gt;u1 -->
<g id="edge15" class="edge"><title>u9&#45;&gt;u1</title>
<path fill="none" stroke="black" d="M499.724,-71.6966C499.724,-63.9827 499.724,-54.7125 499.724,-46.1124"/>
<polygon fill="black" stroke="black" points="503.224,-46.1043 499.724,-36.1043 496.224,-46.1044 503.224,-46.1043"/>
</g>
</g>
</svg>
